# xmcd
#
# Track frame offsets:
#	150
#	11753
#	31093
#	49823
#	69513
#	84970
#	103948
#	130630
#	153650
#	177263
#	203695
#	222468
#
# Disc length: 3294 seconds
#
# Revision: 786435
# Processed by: cddbd v1.5.2PL0 Copyright (c) Steve Scherf et al.
# Submitted via: EZCDAudioConverter 8.0.2.1
#
DISCID=9f0cdc0c
DTITLE=Various Artist - Dạ Vũ Yêu Đương 3
DYEAR=1988
DGENRE=Traditional Country
TTITLE0=Tấn Phát - Cỏ nhớ tên em
TTITLE1=Kiều Nga - Đừng phá vỡ ân tình
TTITLE2=Jo Marcel - Tình nghĩa đôi ta chỉ thế thôi
TTITLE3=Khánh Ly - Dấu tình sầu
TTITLE4=Thái Thảo - Tình gió mưa
TTITLE5=Lưu Hồng - Thung lũng
TTITLE6=Lynda Trang Đài - Sa mạc tình yêu
TTITLE7=Hải Lý - Vết chân hoang
TTITLE8=Lê Quốc Anh - Mười sáu trăng tròn
TTITLE9=Carol Kim - Hận tionhf trong mưa
TTITLE10=Thanh Thúy - Kiếp nghèo
TTITLE11=Đức Huy - Biết đến thuở nào
EXTD=
EXTT0=
EXTT1=
EXTT2=
EXTT3=
EXTT4=
EXTT5=
EXTT6=
EXTT7=
EXTT8=
EXTT9=
EXTT10=
EXTT11=
PLAYORDER=
